<mxfile host="Electron" agent="Mozilla/5.0 (Windows NT 10.0; Win64; x64) AppleWebKit/537.36 (KHTML, like Gecko) draw.io/27.0.9 Chrome/134.0.6998.205 Electron/35.4.0 Safari/537.36" version="27.0.9">
  <diagram name="Página-1" id="UjL0n7FHhitoC5Em1yGD">
    <mxGraphModel dx="1773" dy="661" grid="1" gridSize="10" guides="1" tooltips="1" connect="1" arrows="1" fold="1" page="1" pageScale="1" pageWidth="827" pageHeight="1169" math="0" shadow="0">
      <root>
        <mxCell id="0" />
        <mxCell id="1" parent="0" />
        <mxCell id="cBP99T0YkXrcpd5Ya5I3-1" value="&lt;div&gt;Ejercicio 31: Rutas de transporte&lt;/div&gt;&lt;div&gt;Una empresa de transporte desea crear una base de datos para almacenar información sobre sus rutas.&lt;/div&gt;&lt;div&gt;La empresa dispone de una flota de autobuses que distribuye en una serie de rutas.&lt;span style=&quot;background-color: transparent; color: light-dark(rgb(0, 0, 0), rgb(255, 255, 255));&quot;&gt;&amp;nbsp;En cada ruta, el autobús&lt;/span&gt;&lt;/div&gt;&lt;div&gt;pasa por un conjunto de ciudades en las que tiene parada.&lt;/div&gt;&lt;div&gt;&lt;font style=&quot;color: rgb(102, 255, 102);&quot;&gt;Una ruta se identifica por un código y se caracteriza por los kilómetros totales de recorrido, el origen y el&lt;/font&gt;&lt;/div&gt;&lt;div&gt;&lt;font style=&quot;color: rgb(102, 255, 102);&quot;&gt;destino final.&lt;/font&gt;&lt;/div&gt;&lt;div&gt;&lt;font style=&quot;color: rgb(0, 204, 0);&quot;&gt;De cada autobús, se almacena su matrícula, el modelo, su capacidad (plazas) y el nombre del&amp;nbsp;&lt;span style=&quot;background-color: transparent;&quot;&gt;conductor.&lt;/span&gt;&lt;/font&gt;&lt;/div&gt;&lt;div&gt;&lt;span style=&quot;background-color: transparent;&quot;&gt;&lt;font style=&quot;color: rgb(0, 204, 0);&quot;&gt;Se asume que un autobús sólo puede estar realizando una ruta al mismo tiempo, pero un autobús&lt;/font&gt;&lt;/span&gt;&lt;/div&gt;&lt;div&gt;&lt;font style=&quot;color: rgb(0, 204, 0);&quot;&gt;puede realizar muchas rutas a lo largo del tiempo.&lt;/font&gt;&lt;/div&gt;&lt;div&gt;&lt;font style=&quot;color: rgb(102, 255, 102);&quot;&gt;Las rutas tienen paradas en distintas ciudades. La parada siempre será en la misma ciudad. De cada ciudad,&lt;/font&gt;&lt;/div&gt;&lt;div&gt;&lt;font style=&quot;color: rgb(102, 255, 102);&quot;&gt;almacenaremos un código distintivo, su nombre, población y el teléfono del lugar de parada. Para organizar&lt;/font&gt;&lt;/div&gt;&lt;div&gt;&lt;font style=&quot;color: rgb(102, 255, 102);&quot;&gt;las rutas&lt;/font&gt;,&lt;font style=&quot;color: rgb(0, 204, 0);&quot;&gt; cada parada tiene un número de orden, que puede variar entre distintas rutas debido a que una misma&lt;/font&gt;&lt;/div&gt;&lt;div&gt;&lt;font style=&quot;color: rgb(0, 204, 0);&quot;&gt;ciudad puede pertenecer a varias rutas.&lt;/font&gt;&lt;/div&gt;&lt;div&gt;&lt;font style=&quot;color: rgb(102, 255, 102);&quot;&gt;Podría suceder que haya autobuses que no hayan recorrido todavía ninguna ruta y rutas que no hayan sido&lt;/font&gt;&lt;/div&gt;&lt;div&gt;&lt;font style=&quot;color: rgb(102, 255, 102);&quot;&gt;recorridas por el momento.&lt;/font&gt;&lt;/div&gt;&lt;div&gt;&lt;/div&gt;" style="text;html=1;align=left;verticalAlign=middle;resizable=0;points=[];autosize=1;strokeColor=none;fillColor=none;" vertex="1" parent="1">
          <mxGeometry x="-180" y="10" width="620" height="230" as="geometry" />
        </mxCell>
        <mxCell id="cBP99T0YkXrcpd5Ya5I3-2" value="&lt;div&gt;autobus&lt;/div&gt;" style="whiteSpace=wrap;html=1;align=center;fillColor=#f0a30a;strokeColor=#BD7000;fontColor=#000000;" vertex="1" parent="1">
          <mxGeometry x="-200" y="370" width="80" height="40" as="geometry" />
        </mxCell>
        <mxCell id="cBP99T0YkXrcpd5Ya5I3-5" value="ruta" style="whiteSpace=wrap;html=1;align=center;fillColor=#f0a30a;strokeColor=#BD7000;fontColor=#000000;" vertex="1" parent="1">
          <mxGeometry x="110" y="370" width="70" height="40" as="geometry" />
        </mxCell>
        <mxCell id="cBP99T0YkXrcpd5Ya5I3-6" value="realiza" style="shape=rhombus;perimeter=rhombusPerimeter;whiteSpace=wrap;html=1;align=center;fillColor=#76608a;fontColor=#ffffff;strokeColor=#432D57;" vertex="1" parent="1">
          <mxGeometry x="-50" y="370" width="90" height="40" as="geometry" />
        </mxCell>
        <mxCell id="cBP99T0YkXrcpd5Ya5I3-7" value="" style="endArrow=none;html=1;rounded=0;exitX=0;exitY=0.5;exitDx=0;exitDy=0;entryX=1;entryY=0.5;entryDx=0;entryDy=0;" edge="1" source="cBP99T0YkXrcpd5Ya5I3-6" parent="1" target="cBP99T0YkXrcpd5Ya5I3-2">
          <mxGeometry relative="1" as="geometry">
            <mxPoint x="-73" y="360" as="sourcePoint" />
            <mxPoint x="-120" y="390" as="targetPoint" />
          </mxGeometry>
        </mxCell>
        <mxCell id="cBP99T0YkXrcpd5Ya5I3-8" value="(0,1)" style="resizable=0;html=1;whiteSpace=wrap;align=right;verticalAlign=bottom;" connectable="0" vertex="1" parent="cBP99T0YkXrcpd5Ya5I3-7">
          <mxGeometry x="1" relative="1" as="geometry">
            <mxPoint x="34" as="offset" />
          </mxGeometry>
        </mxCell>
        <mxCell id="cBP99T0YkXrcpd5Ya5I3-9" value="" style="endArrow=none;html=1;rounded=0;exitX=1;exitY=0.5;exitDx=0;exitDy=0;entryX=0;entryY=0.5;entryDx=0;entryDy=0;" edge="1" source="cBP99T0YkXrcpd5Ya5I3-6" parent="1" target="cBP99T0YkXrcpd5Ya5I3-5">
          <mxGeometry relative="1" as="geometry">
            <mxPoint x="-73" y="360" as="sourcePoint" />
            <mxPoint x="100" y="390" as="targetPoint" />
          </mxGeometry>
        </mxCell>
        <mxCell id="cBP99T0YkXrcpd5Ya5I3-10" value="(0,N)" style="resizable=0;html=1;whiteSpace=wrap;align=right;verticalAlign=bottom;" connectable="0" vertex="1" parent="cBP99T0YkXrcpd5Ya5I3-9">
          <mxGeometry x="1" relative="1" as="geometry">
            <mxPoint as="offset" />
          </mxGeometry>
        </mxCell>
        <mxCell id="cBP99T0YkXrcpd5Ya5I3-18" value="para" style="shape=rhombus;perimeter=rhombusPerimeter;whiteSpace=wrap;html=1;align=center;fillColor=#76608a;fontColor=#ffffff;strokeColor=#432D57;" vertex="1" parent="1">
          <mxGeometry x="250" y="370" width="90" height="40" as="geometry" />
        </mxCell>
        <mxCell id="cBP99T0YkXrcpd5Ya5I3-19" value="" style="endArrow=none;html=1;rounded=0;exitX=0;exitY=0.5;exitDx=0;exitDy=0;entryX=1;entryY=0.5;entryDx=0;entryDy=0;" edge="1" source="cBP99T0YkXrcpd5Ya5I3-18" parent="1" target="cBP99T0YkXrcpd5Ya5I3-5">
          <mxGeometry relative="1" as="geometry">
            <mxPoint x="237" y="360" as="sourcePoint" />
            <mxPoint x="190" y="390" as="targetPoint" />
          </mxGeometry>
        </mxCell>
        <mxCell id="cBP99T0YkXrcpd5Ya5I3-20" value="(1,N)" style="resizable=0;html=1;whiteSpace=wrap;align=right;verticalAlign=bottom;" connectable="0" vertex="1" parent="cBP99T0YkXrcpd5Ya5I3-19">
          <mxGeometry x="1" relative="1" as="geometry">
            <mxPoint x="34" as="offset" />
          </mxGeometry>
        </mxCell>
        <mxCell id="cBP99T0YkXrcpd5Ya5I3-21" value="" style="endArrow=none;html=1;rounded=0;exitX=1;exitY=0.5;exitDx=0;exitDy=0;entryX=0;entryY=0.5;entryDx=0;entryDy=0;" edge="1" source="cBP99T0YkXrcpd5Ya5I3-18" parent="1" target="cBP99T0YkXrcpd5Ya5I3-23">
          <mxGeometry relative="1" as="geometry">
            <mxPoint x="227" y="360" as="sourcePoint" />
            <mxPoint x="400" y="390" as="targetPoint" />
          </mxGeometry>
        </mxCell>
        <mxCell id="cBP99T0YkXrcpd5Ya5I3-22" value="(1,M)" style="resizable=0;html=1;whiteSpace=wrap;align=right;verticalAlign=bottom;" connectable="0" vertex="1" parent="cBP99T0YkXrcpd5Ya5I3-21">
          <mxGeometry x="1" relative="1" as="geometry">
            <mxPoint as="offset" />
          </mxGeometry>
        </mxCell>
        <mxCell id="cBP99T0YkXrcpd5Ya5I3-23" value="ciudad" style="whiteSpace=wrap;html=1;align=center;fillColor=#f0a30a;strokeColor=#BD7000;fontColor=#000000;" vertex="1" parent="1">
          <mxGeometry x="410" y="370" width="100" height="40" as="geometry" />
        </mxCell>
        <mxCell id="cBP99T0YkXrcpd5Ya5I3-24" value="" style="endArrow=none;html=1;rounded=0;exitX=0.5;exitY=1;exitDx=0;exitDy=0;" edge="1" target="cBP99T0YkXrcpd5Ya5I3-25" parent="1" source="cBP99T0YkXrcpd5Ya5I3-18">
          <mxGeometry relative="1" as="geometry">
            <mxPoint x="270" y="455" as="sourcePoint" />
            <mxPoint x="330" y="455" as="targetPoint" />
          </mxGeometry>
        </mxCell>
        <mxCell id="cBP99T0YkXrcpd5Ya5I3-25" value="nOrden" style="ellipse;whiteSpace=wrap;html=1;align=center;" vertex="1" parent="1">
          <mxGeometry x="270" y="430" width="50" height="30" as="geometry" />
        </mxCell>
        <mxCell id="cBP99T0YkXrcpd5Ya5I3-26" value="" style="endArrow=none;html=1;rounded=0;exitX=0.5;exitY=0;exitDx=0;exitDy=0;" edge="1" target="cBP99T0YkXrcpd5Ya5I3-27" parent="1" source="cBP99T0YkXrcpd5Ya5I3-23">
          <mxGeometry relative="1" as="geometry">
            <mxPoint x="235" y="335" as="sourcePoint" />
            <mxPoint x="295" y="335" as="targetPoint" />
          </mxGeometry>
        </mxCell>
        <mxCell id="cBP99T0YkXrcpd5Ya5I3-27" value="tlfParada" style="ellipse;whiteSpace=wrap;html=1;align=center;" vertex="1" parent="1">
          <mxGeometry x="427.5" y="310" width="65" height="30" as="geometry" />
        </mxCell>
        <mxCell id="cBP99T0YkXrcpd5Ya5I3-28" value="" style="endArrow=none;html=1;rounded=0;exitX=0.5;exitY=1;exitDx=0;exitDy=0;" edge="1" target="cBP99T0YkXrcpd5Ya5I3-29" parent="1" source="cBP99T0YkXrcpd5Ya5I3-23">
          <mxGeometry relative="1" as="geometry">
            <mxPoint x="418" y="445" as="sourcePoint" />
            <mxPoint x="478" y="445" as="targetPoint" />
          </mxGeometry>
        </mxCell>
        <mxCell id="cBP99T0YkXrcpd5Ya5I3-29" value="&lt;u&gt;codigo&lt;/u&gt;" style="ellipse;whiteSpace=wrap;html=1;align=center;" vertex="1" parent="1">
          <mxGeometry x="435" y="440" width="50" height="30" as="geometry" />
        </mxCell>
        <mxCell id="cBP99T0YkXrcpd5Ya5I3-30" value="" style="endArrow=none;html=1;rounded=0;exitX=1;exitY=1;exitDx=0;exitDy=0;" edge="1" target="cBP99T0YkXrcpd5Ya5I3-31" parent="1" source="cBP99T0YkXrcpd5Ya5I3-23">
          <mxGeometry relative="1" as="geometry">
            <mxPoint x="540" y="405" as="sourcePoint" />
            <mxPoint x="600" y="405" as="targetPoint" />
          </mxGeometry>
        </mxCell>
        <mxCell id="cBP99T0YkXrcpd5Ya5I3-31" value="nombre" style="ellipse;whiteSpace=wrap;html=1;align=center;" vertex="1" parent="1">
          <mxGeometry x="550" y="400" width="50" height="30" as="geometry" />
        </mxCell>
        <mxCell id="cBP99T0YkXrcpd5Ya5I3-32" value="" style="endArrow=none;html=1;rounded=0;exitX=1;exitY=0;exitDx=0;exitDy=0;" edge="1" target="cBP99T0YkXrcpd5Ya5I3-33" parent="1" source="cBP99T0YkXrcpd5Ya5I3-23">
          <mxGeometry relative="1" as="geometry">
            <mxPoint x="530" y="355" as="sourcePoint" />
            <mxPoint x="590" y="355" as="targetPoint" />
          </mxGeometry>
        </mxCell>
        <mxCell id="cBP99T0YkXrcpd5Ya5I3-33" value="poblacion" style="ellipse;whiteSpace=wrap;html=1;align=center;" vertex="1" parent="1">
          <mxGeometry x="550" y="340" width="60" height="30" as="geometry" />
        </mxCell>
        <mxCell id="cBP99T0YkXrcpd5Ya5I3-34" value="" style="endArrow=none;html=1;rounded=0;exitX=0.5;exitY=1;exitDx=0;exitDy=0;" edge="1" target="cBP99T0YkXrcpd5Ya5I3-35" parent="1" source="cBP99T0YkXrcpd5Ya5I3-2">
          <mxGeometry relative="1" as="geometry">
            <mxPoint x="-225" y="455" as="sourcePoint" />
            <mxPoint x="-165" y="455" as="targetPoint" />
          </mxGeometry>
        </mxCell>
        <mxCell id="cBP99T0YkXrcpd5Ya5I3-35" value="&lt;u&gt;matricula&lt;/u&gt;" style="ellipse;whiteSpace=wrap;html=1;align=center;" vertex="1" parent="1">
          <mxGeometry x="-190" y="440" width="60" height="30" as="geometry" />
        </mxCell>
        <mxCell id="cBP99T0YkXrcpd5Ya5I3-36" value="" style="endArrow=none;html=1;rounded=0;exitX=0.5;exitY=0;exitDx=0;exitDy=0;" edge="1" target="cBP99T0YkXrcpd5Ya5I3-37" parent="1" source="cBP99T0YkXrcpd5Ya5I3-2">
          <mxGeometry relative="1" as="geometry">
            <mxPoint x="-210" y="315" as="sourcePoint" />
            <mxPoint x="-150" y="315" as="targetPoint" />
          </mxGeometry>
        </mxCell>
        <mxCell id="cBP99T0YkXrcpd5Ya5I3-37" value="modelo" style="ellipse;whiteSpace=wrap;html=1;align=center;" vertex="1" parent="1">
          <mxGeometry x="-185" y="310" width="50" height="30" as="geometry" />
        </mxCell>
        <mxCell id="cBP99T0YkXrcpd5Ya5I3-38" value="" style="endArrow=none;html=1;rounded=0;exitX=0;exitY=0.25;exitDx=0;exitDy=0;" edge="1" target="cBP99T0YkXrcpd5Ya5I3-39" parent="1" source="cBP99T0YkXrcpd5Ya5I3-2">
          <mxGeometry relative="1" as="geometry">
            <mxPoint x="-340" y="355" as="sourcePoint" />
            <mxPoint x="-280" y="355" as="targetPoint" />
          </mxGeometry>
        </mxCell>
        <mxCell id="cBP99T0YkXrcpd5Ya5I3-39" value="plazas" style="ellipse;whiteSpace=wrap;html=1;align=center;" vertex="1" parent="1">
          <mxGeometry x="-300" y="350" width="50" height="30" as="geometry" />
        </mxCell>
        <mxCell id="cBP99T0YkXrcpd5Ya5I3-40" value="" style="endArrow=none;html=1;rounded=0;exitX=0;exitY=0.75;exitDx=0;exitDy=0;" edge="1" target="cBP99T0YkXrcpd5Ya5I3-41" parent="1" source="cBP99T0YkXrcpd5Ya5I3-2">
          <mxGeometry relative="1" as="geometry">
            <mxPoint x="-335" y="415" as="sourcePoint" />
            <mxPoint x="-275" y="415" as="targetPoint" />
          </mxGeometry>
        </mxCell>
        <mxCell id="cBP99T0YkXrcpd5Ya5I3-41" value="conductor" style="ellipse;whiteSpace=wrap;html=1;align=center;" vertex="1" parent="1">
          <mxGeometry x="-310" y="400" width="60" height="30" as="geometry" />
        </mxCell>
        <mxCell id="cBP99T0YkXrcpd5Ya5I3-42" value="" style="endArrow=none;html=1;rounded=0;exitX=0.5;exitY=1;exitDx=0;exitDy=0;" edge="1" target="cBP99T0YkXrcpd5Ya5I3-43" parent="1" source="cBP99T0YkXrcpd5Ya5I3-5">
          <mxGeometry relative="1" as="geometry">
            <mxPoint x="95" y="455" as="sourcePoint" />
            <mxPoint x="155" y="455" as="targetPoint" />
          </mxGeometry>
        </mxCell>
        <mxCell id="cBP99T0YkXrcpd5Ya5I3-43" value="&lt;u&gt;codigo&lt;/u&gt;" style="ellipse;whiteSpace=wrap;html=1;align=center;" vertex="1" parent="1">
          <mxGeometry x="120" y="430" width="50" height="30" as="geometry" />
        </mxCell>
        <mxCell id="cBP99T0YkXrcpd5Ya5I3-44" value="" style="endArrow=none;html=1;rounded=0;exitX=0.25;exitY=0;exitDx=0;exitDy=0;" edge="1" target="cBP99T0YkXrcpd5Ya5I3-45" parent="1" source="cBP99T0YkXrcpd5Ya5I3-5">
          <mxGeometry relative="1" as="geometry">
            <mxPoint x="70" y="345" as="sourcePoint" />
            <mxPoint x="130" y="345" as="targetPoint" />
          </mxGeometry>
        </mxCell>
        <mxCell id="cBP99T0YkXrcpd5Ya5I3-45" value="origen" style="ellipse;whiteSpace=wrap;html=1;align=center;" vertex="1" parent="1">
          <mxGeometry x="70" y="330" width="50" height="30" as="geometry" />
        </mxCell>
        <mxCell id="cBP99T0YkXrcpd5Ya5I3-50" value="" style="endArrow=none;html=1;rounded=0;exitX=0.75;exitY=0;exitDx=0;exitDy=0;" edge="1" target="cBP99T0YkXrcpd5Ya5I3-51" parent="1" source="cBP99T0YkXrcpd5Ya5I3-5">
          <mxGeometry relative="1" as="geometry">
            <mxPoint x="170" y="315" as="sourcePoint" />
            <mxPoint x="230" y="315" as="targetPoint" />
          </mxGeometry>
        </mxCell>
        <mxCell id="cBP99T0YkXrcpd5Ya5I3-51" value="destino" style="ellipse;whiteSpace=wrap;html=1;align=center;" vertex="1" parent="1">
          <mxGeometry x="160" y="330" width="50" height="30" as="geometry" />
        </mxCell>
        <mxCell id="cBP99T0YkXrcpd5Ya5I3-52" value="" style="endArrow=none;html=1;rounded=0;exitX=0.5;exitY=0;exitDx=0;exitDy=0;" edge="1" target="cBP99T0YkXrcpd5Ya5I3-53" parent="1" source="cBP99T0YkXrcpd5Ya5I3-5">
          <mxGeometry relative="1" as="geometry">
            <mxPoint x="95" y="295" as="sourcePoint" />
            <mxPoint x="155" y="295" as="targetPoint" />
          </mxGeometry>
        </mxCell>
        <mxCell id="cBP99T0YkXrcpd5Ya5I3-53" value="kmTotales" style="ellipse;whiteSpace=wrap;html=1;align=center;" vertex="1" parent="1">
          <mxGeometry x="115" y="300" width="60" height="30" as="geometry" />
        </mxCell>
      </root>
    </mxGraphModel>
  </diagram>
</mxfile>
